<?xml version="1.0" standalone="no"?>
<!DOCTYPE svg PUBLIC "-//W3C//DTD SVG 20010904//EN"
 "http://www.w3.org/TR/2001/REC-SVG-20010904/DTD/svg10.dtd">
<svg version="1.0" xmlns="http://www.w3.org/2000/svg"
 width="384.000000pt" height="384.000000pt" viewBox="0 0 384.000000 384.000000"
 preserveAspectRatio="xMidYMid meet">
<metadata>
Created by potrace 1.11, written by Peter Selinger 2001-2013
</metadata>
<g transform="translate(0.000000,384.000000) scale(0.100000,-0.100000)"
fill="#000000" stroke="none">
<path d="M1758 3835 c-1 -2 -32 -6 -68 -9 -36 -3 -72 -8 -80 -10 -8 -3 -31 -7
-50 -10 -32 -5 -70 -13 -95 -20 -5 -1 -30 -8 -55 -15 -240 -64 -470 -182 -696
-356 -57 -44 -223 -210 -282 -283 -49 -60 -124 -164 -148 -207 -6 -11 -23 -40
-38 -65 -92 -160 -193 -434 -212 -575 -2 -16 -6 -41 -9 -55 -14 -67 -20 -169
-20 -315 1 -236 16 -342 86 -580 36 -124 130 -321 216 -455 151 -232 373 -451
603 -593 148 -92 386 -195 515 -223 6 -1 33 -7 60 -14 28 -6 61 -14 75 -16 14
-2 35 -6 46 -9 115 -26 535 -26 624 -1 8 3 31 7 50 10 61 10 254 61 274 73 6
4 17 8 24 9 22 4 141 56 222 97 112 58 202 117 345 227 45 35 235 230 282 290
108 138 238 364 280 485 108 315 129 432 127 715 -1 193 -8 260 -39 400 -3 14
-8 38 -11 54 -2 16 -7 33 -10 38 -3 5 -8 20 -10 35 -9 49 -76 217 -126 318
-181 363 -476 662 -838 852 -131 68 -300 131 -445 163 -72 17 -81 18 -195 36
-40 6 -396 14 -402 9z"/>
</g>
</svg>
